<svg width="49" height="48" viewBox="0 0 49 48" fill="none" xmlns="http://www.w3.org/2000/svg">
<path d="M42.7544 31.213C41.472 34.1683 39.4662 36.7725 36.9124 38.7978C34.3587 40.8232 31.3346 42.2081 28.1047 42.8315C24.8748 43.4549 21.5373 43.2978 18.3841 42.3739C15.2309 41.45 12.3579 39.7874 10.0164 37.5316C7.67489 35.2757 5.93609 32.4952 4.95204 29.4333C3.96799 26.3713 3.76864 23.121 4.37143 19.9666C4.97421 16.8122 6.36078 13.8497 8.4099 11.3382C10.459 8.82658 13.1083 6.8424 16.1261 5.55908" stroke="#A7A8AB" stroke-width="2" stroke-linecap="round" stroke-linejoin="round"/>
<path d="M44.3466 23.5719C44.3466 20.9923 43.8252 18.438 42.8122 16.0548C41.7992 13.6715 40.3144 11.5061 38.4426 9.68206C36.5707 7.85802 34.3486 6.41112 31.903 5.42396C29.4573 4.4368 26.8361 3.92871 24.189 3.92871V23.5719H44.3466Z" stroke="#A7A8AB" stroke-width="2" stroke-linecap="round" stroke-linejoin="round"/>
</svg>
