<svg width="49" height="48" viewBox="0 0 49 48" fill="none" xmlns="http://www.w3.org/2000/svg">
<path d="M38.0068 5.51831C38.5954 5.51837 39.1306 6.03524 39.1309 6.61499V11.5027H41.5898C43.6094 11.5029 45.2724 13.1192 45.2725 15.0935V38.0349C45.2723 40.0091 43.6093 41.6256 41.5898 41.6257H6.78809C4.76865 41.6255 3.10664 40.009 3.10645 38.0349V9.60718C3.10672 7.35685 4.99691 5.51857 7.2998 5.51831H38.0068ZM5.35352 38.0349C5.3537 38.8231 5.9729 39.4302 6.78809 39.4304H41.5898C42.4051 39.4303 43.0242 38.8231 43.0244 38.0349V32.1501H28.2832C26.8305 32.1501 25.624 30.9782 25.624 29.5564V23.572C25.624 22.1502 26.8305 20.9783 28.2832 20.9783H43.0244V15.0935C43.0244 14.3052 42.4052 13.6972 41.5898 13.697C31.682 13.697 18.8271 13.687 7.2998 13.697C6.59773 13.6969 5.93598 13.5189 5.35352 13.2175V38.0349ZM28.1924 23.1804C28.1067 23.1956 28.0366 23.233 27.9844 23.2839C27.915 23.3517 27.8711 23.45 27.8711 23.572V29.5564C27.8711 29.6784 27.915 29.7768 27.9844 29.8445C28.054 29.9122 28.1559 29.9548 28.2832 29.9548H43.0244V23.1726H28.2832L28.1924 23.1804ZM33.4014 24.4695C34.5846 24.4696 35.5479 25.4049 35.5479 26.5642C35.5478 27.7235 34.5845 28.6588 33.4014 28.6589C32.2181 28.6589 31.254 27.7236 31.2539 26.5642C31.2539 25.4048 32.218 24.4695 33.4014 24.4695ZM7.2998 7.71265C6.20117 7.71289 5.35377 8.5428 5.35352 9.60718C5.35352 10.6718 6.20101 11.5024 7.2998 11.5027H36.8838V7.71265H7.2998Z" fill="#A7A8AB" stroke="#A7A8AB" stroke-width="0.2"/>
</svg>
