<svg width="105" height="39" viewBox="0 0 105 39" fill="none" xmlns="http://www.w3.org/2000/svg">
<path d="M8.27297 0.365317C8.11596 0.891984 8.53466 1.1863 9.40694 1.23277C10.7503 1.27924 11.5702 1.3412 13.6113 1.58904C14.7802 1.71296 16.2456 1.86787 16.8911 1.89885C17.5366 1.94532 18.9323 2.08473 19.979 2.20865C21.0432 2.33257 22.4563 2.47198 23.1192 2.51845C23.7996 2.56492 25.2825 2.70434 26.4339 2.82826C27.5853 2.95218 28.9984 3.09159 29.5741 3.12257C30.1498 3.16904 31.5629 3.30845 32.7143 3.43237C33.8657 3.57179 35.3661 3.7112 36.029 3.75767C36.7094 3.80414 38.1225 3.94355 39.1692 4.06747C40.2334 4.19139 41.5941 4.3308 42.2222 4.37727C42.8502 4.42375 44.2284 4.56316 45.2752 4.68708C46.3394 4.811 47.7001 4.93492 48.3282 4.98139C48.9562 5.02786 50.2821 5.16727 51.2939 5.2912C52.3058 5.41512 53.4746 5.53904 53.9108 5.55453C54.3469 5.57002 55.7949 5.70943 57.1382 5.86433C58.4815 6.01923 60.1737 6.17414 60.889 6.2361C61.6043 6.28257 63.0174 6.42198 64.0292 6.5459C65.0411 6.66982 66.3669 6.79374 66.995 6.84021C68.1115 6.91766 70.1527 7.11904 75.6306 7.72316C77.1658 7.87806 78.7708 8.01747 79.2069 8.03296C80.7596 8.04845 80.62 6.88668 80.6026 19.0465C80.6026 27.5971 80.6375 29.8431 80.8119 29.8896C80.9341 29.9206 82.5739 29.9206 84.4406 29.8586C86.3073 29.8122 87.9821 29.8276 88.1565 29.9051C88.7148 30.1375 88.7671 30.6176 88.4008 31.8724C87.9821 33.282 87.8949 36.0237 88.2438 36.411C88.3833 36.5504 88.5927 36.6124 88.7497 36.5659C88.9765 36.4884 89.0114 36.2871 88.9242 35.528C88.802 34.3198 89.0463 32.5074 89.465 31.6555C90.1104 30.3698 91.8201 29.1151 93.0762 29.0067C93.3728 28.9912 93.7217 28.9292 93.8613 28.8673C94.2102 28.7433 94.6463 29.0067 94.4719 29.239C94.4021 29.332 94.1404 29.3939 93.8962 29.3784C93.6345 29.3629 93.2681 29.3939 93.0762 29.4559C90.7036 30.1839 89.465 31.8569 89.4301 34.3508C89.4301 35.528 89.6743 36.1786 90.4768 37.0771C91.227 37.8825 92.3435 38.3782 93.46 38.3782C95.1871 38.3782 96.4258 37.7431 97.5597 36.2716C98.0657 35.6365 98.6239 33.979 98.4844 33.5763C98.4495 33.4523 98.3797 33.158 98.3273 32.9412C98.0657 31.5316 96.5305 29.7967 95.3965 29.5953C95.065 29.5333 94.908 29.4094 94.908 29.2235C94.908 28.8363 94.9429 28.8518 96.1118 29.4094C97.2457 29.9516 98.3448 31.0824 98.5018 31.8724C98.5716 32.1667 98.7112 32.461 98.8158 32.5229C98.9379 32.6004 99.0077 33.2974 99.0077 34.4592C99.0077 35.4661 99.0775 36.38 99.1647 36.4884C99.2694 36.6588 99.8277 36.6898 101.747 36.6123C103.107 36.5814 104.276 36.4574 104.416 36.3645C104.852 36.0547 105.044 35.3267 104.992 34.2578C104.939 33.189 104.939 33.189 103.77 33.1425C103.142 33.1116 102.532 33.0186 102.445 32.9102C102.357 32.8018 102.235 32.43 102.165 32.0582C102.061 31.4076 102.061 31.4076 102.741 31.4076C103.107 31.4076 103.666 31.3612 103.98 31.3147C104.538 31.2063 104.538 31.2063 104.416 30.3233C104.346 29.7347 104.364 29.3939 104.486 29.332C104.608 29.2545 104.678 27.9998 104.678 25.4439C104.678 21.6643 104.678 21.6643 104.05 21.2151C103.421 20.7504 103.421 20.7504 103.212 18.148C103.107 16.7075 103.02 15.1739 103.02 14.7557C103.02 13.9812 103.02 13.9812 103.805 13.9812C104.59 13.9812 104.59 13.9812 104.59 13.3616C104.59 12.8194 104.521 12.711 104.032 12.4941C103.718 12.3547 103.16 11.9984 102.776 11.6886C102.218 11.2394 101.816 11.0845 100.473 10.8212C98.9728 10.5114 95.6931 10.0312 95.1522 10.0312C95.0127 10.0312 94.7859 9.81433 94.6463 9.56649C94.4893 9.30315 94.1927 9.02433 93.9659 8.94688C93.7392 8.86943 92.1865 8.77649 90.5292 8.73002C87.1447 8.65257 86.3596 8.54413 86.3596 8.21884C86.3596 8.03296 86.569 8.01747 87.546 8.11041C89.4824 8.2808 91.541 8.24982 91.9422 8.01747C92.1516 7.90904 92.1342 7.83159 91.855 7.55276C90.8955 6.60786 87.4064 5.61649 84.4057 5.4461C82.2948 5.33767 82.5216 5.21375 82.2599 6.65433C82.2076 6.97963 82.0855 7.27394 81.9982 7.32041C81.911 7.36688 80.6724 7.27394 79.2593 7.10355C77.8462 6.93316 76.2063 6.74727 75.6306 6.71629C75.0549 6.66982 73.6418 6.53041 72.4904 6.40649C71.339 6.28257 68.9489 6.03472 67.1694 5.84884C65.39 5.67845 62.651 5.39963 61.0635 5.22924C59.4759 5.07433 56.7021 4.79551 54.8703 4.60963C51.7824 4.31531 49.2528 4.05198 43.234 3.44786C41.9082 3.30845 40.3904 3.16904 39.8321 3.12257C39.2739 3.09159 38.0003 2.95218 36.9885 2.82826C35.9766 2.70434 34.6159 2.56492 33.9355 2.51845C33.2726 2.47198 31.8595 2.31708 30.7953 2.19316C29.7486 2.06924 28.4052 1.94532 27.8295 1.89885C27.2538 1.86787 25.928 1.72845 24.8638 1.60453C23.817 1.46512 22.4039 1.32571 21.7236 1.27924C21.0606 1.23277 19.6475 1.09336 18.5833 0.969435C17.5366 0.845513 16.1584 0.706101 15.5304 0.675121C14.9023 0.628651 13.5764 0.489239 12.5646 0.365317C11.5528 0.241396 10.2094 0.101984 9.56395 0.0400235C8.39509 -0.0374274 8.37765 -0.0374274 8.27297 0.365317ZM84.1441 9.56649C84.5453 9.56649 84.6151 9.62845 84.6151 10.0157C84.6151 10.2635 84.5104 10.5424 84.3883 10.6353C84.0219 10.8986 84.2313 12.5096 84.6674 12.8194C84.9989 13.0673 84.9989 13.0828 84.6849 13.501C84.3883 13.9347 84.3883 13.9502 84.7198 14.1671C85.0687 14.3994 85.8363 14.3065 86.0456 14.0122C86.1154 13.9192 86.0456 13.7179 85.9061 13.5784C85.5571 13.2377 85.6095 12.8349 86.0282 12.6955C86.2201 12.6335 86.4643 12.4167 86.5864 12.2153C86.8307 11.7816 87.3366 11.4718 87.5285 11.6267C87.5983 11.6886 87.5285 11.9675 87.3715 12.2463C87.197 12.5251 86.9877 13.0518 86.8656 13.439C86.7435 13.8263 86.5515 14.2445 86.412 14.3839C86.2899 14.5079 86.1852 14.8641 86.1852 15.1584C86.1852 15.7626 85.9235 16.0724 85.4525 16.0724C84.8942 16.0724 83.7428 15.7006 83.7428 15.5147C83.7428 15.3133 84.3011 15.143 84.9989 15.143C85.5223 15.143 85.8014 14.8951 85.5223 14.6473C85.4176 14.5543 84.9814 14.5543 84.3534 14.6318C83.3415 14.7557 83.3415 14.7557 83.2718 16.0724C83.202 17.5439 83.1148 17.9002 82.8705 17.6833C82.7833 17.6059 82.7484 15.8865 82.8182 13.47C82.9229 9.42707 82.9229 9.39609 83.2892 9.47355C83.4986 9.52002 83.8649 9.56649 84.1441 9.56649ZM101.433 14.7557C101.485 15.1739 101.537 15.9949 101.537 16.568C101.537 17.6059 101.537 17.6059 100.717 17.6524C100.107 17.6833 99.88 17.7608 99.88 17.9312C99.88 18.1016 100.089 18.1635 100.752 18.1635C101.415 18.1635 101.625 18.2255 101.625 18.3959C101.625 18.5818 101.363 18.6128 100.089 18.5663C99.0601 18.5353 98.4844 18.5818 98.3099 18.7057C97.8389 19.0465 98.2401 19.1704 99.88 19.1704C100.787 19.1704 101.572 19.2324 101.625 19.3253C101.956 19.821 98.9031 19.821 96.8968 19.3408C96.1815 19.1704 96.1815 19.1704 96.0594 16.692C95.9896 15.3288 95.9722 14.1516 96.042 14.0586C96.1292 13.9347 97.0189 13.9037 98.746 13.9192C101.328 13.9657 101.328 13.9657 101.433 14.7557ZM89.465 15.4218C89.936 16.4131 89.936 16.5371 89.5173 16.5371C89.2382 16.5371 88.6276 17.1257 88.6276 17.389C88.6276 17.4355 88.8369 17.4665 89.0812 17.4665C89.5696 17.4665 90.7036 16.9243 90.9479 16.5835C91.1223 16.3202 91.5933 16.3202 91.5933 16.5835C91.5933 16.692 91.384 17.0482 91.1398 17.3735C90.6862 17.9622 90.6687 17.9777 89.7441 17.8847C88.802 17.7918 88.6276 17.8692 89.0114 18.21C89.1684 18.3494 89.1684 18.5353 89.0114 18.969C88.9067 19.2943 88.7671 19.9759 88.7148 20.4871C88.5578 21.9277 88.1914 22.9655 87.4064 24.1427C86.412 25.6453 86.1328 25.5833 85.9584 23.771C85.9061 23.2908 85.941 23.0429 86.0805 23.0584C86.5341 23.1049 86.6911 23.012 86.9702 22.5008C87.3366 21.8037 87.1098 21.0602 86.3422 20.5026C85.8886 20.1618 85.6793 19.79 85.941 19.79C85.9933 19.79 86.3422 19.9449 86.726 20.1308C87.3192 20.4406 87.4413 20.4561 87.5808 20.2547C87.8251 19.9139 87.0749 19.3253 86.098 19.1084C85.1036 18.8761 85.0687 18.6128 86.0631 18.6747C86.9353 18.7367 87.7204 18.3029 87.5285 17.8847C87.3715 17.5284 87.1273 17.5594 86.6911 17.9467C86.3771 18.2255 86.255 18.241 85.9061 18.1016C85.6793 18.0086 85.4874 17.8692 85.4874 17.7918C85.4874 17.6988 85.0512 17.6214 84.5278 17.5904C83.3415 17.5284 83.202 17.2806 84.2836 17.1412C85.2431 17.0173 86.2026 16.5835 87.1447 15.8555C87.7553 15.3908 87.8251 15.2824 87.6332 15.0035C87.3715 14.6473 87.5285 14.5698 88.4706 14.5853C89.0637 14.6008 89.116 14.6473 89.465 15.4218ZM83.4288 18.7986C83.673 19.0155 83.7777 19.0155 84.0045 18.8606C84.2138 18.7057 84.2662 18.7057 84.2662 18.8916C84.2662 19.0155 84.4581 19.2788 84.7023 19.4802C85.2257 19.9139 85.0861 20.2082 84.5104 19.8829C83.987 19.5577 83.4986 19.5577 83.6381 19.8675C83.7079 20.0379 83.6207 20.0998 83.3067 20.0998C82.9403 20.0998 82.8705 20.0224 82.8705 19.6661C82.8705 19.4337 82.8182 19.0929 82.7658 18.8916C82.6263 18.4733 82.9577 18.4269 83.4288 18.7986ZM85.592 22.0516C85.6618 22.2684 85.6269 22.5163 85.5048 22.6247C85.1733 22.919 85.278 24.6384 85.6618 25.4594C85.8712 25.8622 85.9584 26.2494 85.8886 26.3114C85.6269 26.5437 84.4057 26.2494 83.5858 25.7537C82.7833 25.258 82.7833 25.258 82.731 24.1273C82.6786 22.7951 82.9054 22.4388 83.2718 23.2443C83.5683 23.8329 84.3011 24.3596 84.6674 24.2357C84.8593 24.1737 84.8942 23.8484 84.8419 22.9035C84.7721 21.7263 84.7895 21.6488 85.121 21.6488C85.3653 21.6488 85.5223 21.7882 85.592 22.0516ZM95.4139 31.3767C95.6582 31.5316 96.0594 31.9653 96.2862 32.3216C97.7516 34.6606 95.0476 37.7122 92.5528 36.5349C90.3372 35.4971 90.7211 32.0118 93.1634 31.1133C93.7566 30.881 94.8731 31.0204 95.4139 31.3767Z" fill="#CFCFCF"/>
<path d="M87.7553 15.7471C87.7553 15.902 87.8774 16.0879 88.017 16.1343C88.3659 16.2428 88.5752 15.7781 88.2612 15.5922C87.8949 15.3908 87.7553 15.4218 87.7553 15.7471Z" fill="#CFCFCF"/>
<path d="M86.8307 16.63C86.6388 16.8469 86.3073 17.0947 86.0805 17.1877C85.5048 17.42 85.5571 17.6833 86.1503 17.5439C86.6911 17.4355 87.5809 16.7384 87.5809 16.4286C87.5809 16.1033 87.1622 16.2118 86.8307 16.63Z" fill="#CFCFCF"/>
<path d="M2.27167 3.29296C2.11466 3.46335 2.09722 3.57178 2.25423 3.72669C2.44613 3.94355 4.73151 4.25335 7.15645 4.37727C7.87172 4.42374 9.5465 4.56316 10.8898 4.70257C13.4543 4.95041 13.8905 4.88845 13.5067 4.3308C13.3497 4.12943 12.8437 4.021 11.0643 3.8661C9.82564 3.75767 7.48792 3.5408 5.84803 3.37041C2.30657 2.99865 2.53336 2.99865 2.27167 3.29296Z" fill="#CFCFCF"/>
<path d="M0.00374143 6.76276C0.00374143 7.19649 0.0211872 7.21198 1.19004 7.30492C1.83553 7.36688 3.59754 7.55276 5.11531 7.73865C7.24368 7.98649 7.90662 8.03296 8.08107 7.87806C8.70911 7.32041 7.41814 6.99512 3.51031 6.71629C2.79504 6.65433 2.04488 6.59237 1.85298 6.5459C1.64363 6.51492 1.15515 6.45296 0.753904 6.40649C0.0211871 6.31355 0.00374143 6.31355 0.00374143 6.76276Z" fill="#CFCFCF"/>
<path d="M18.7578 8.63707C16.2805 8.71452 16.141 8.73001 16.141 9.02433C16.141 9.25668 16.2805 9.34962 16.7516 9.41158C17.3621 9.48903 17.3621 9.48903 17.397 13.439C17.4145 15.6077 17.4494 17.6679 17.4843 18.0086C17.5366 18.5818 17.5017 18.6282 16.926 18.7986C16.2805 18.9845 16.0537 19.2943 16.4026 19.4802C16.6992 19.6351 20.293 19.6351 20.5896 19.4802C20.9385 19.2943 20.6594 18.8606 20.1709 18.8606C19.1416 18.8606 19.1939 19.0775 19.1939 14.1206C19.1939 9.55099 19.1939 9.551 20.8164 9.65943C22.8924 9.79884 23.6426 10.1086 24.1136 11.0535C24.9161 12.6955 23.503 14.0586 20.9734 14.0586C19.6475 14.0586 19.5429 14.0896 19.665 14.5388C19.7522 14.7867 19.9092 14.8331 20.8338 14.8331C22.2993 14.8331 23.503 14.4924 24.3927 13.8108C26.0326 12.5716 26.4688 10.4959 25.3348 9.47354C24.3404 8.5906 23.5379 8.49766 18.7578 8.63707Z" fill="#CFCFCF"/>
<path d="M62.3021 8.88492C61.866 9.3806 61.8485 9.55099 62.2149 10.0002C62.965 10.9451 64.4828 9.82982 63.8548 8.77649C63.5756 8.32727 62.7383 8.38923 62.3021 8.88492Z" fill="#CFCFCF"/>
<path d="M0.00374143 11.2704C0.00374143 11.6422 0.073524 11.7506 0.24798 11.6886C0.387545 11.6422 1.50407 11.7351 2.74271 11.89C3.9639 12.0449 5.41189 12.2153 5.93526 12.2463C6.45863 12.2928 7.69727 12.4167 8.69167 12.5251C10.0699 12.6645 10.5409 12.6645 10.6979 12.5251C11.1341 12.1379 10.5932 11.8126 9.31971 11.6886C8.65678 11.6267 7.13901 11.4718 5.93526 11.3324C4.73151 11.2084 3.31841 11.069 2.79504 11.0381C2.27167 11.0071 1.41684 10.9296 0.92836 10.8831C0.00374138 10.7902 0.00374143 10.7902 0.00374143 11.2704Z" fill="#CFCFCF"/>
<path d="M28.004 11.952C27.027 12.3547 26.0326 13.2377 25.4395 14.2445C24.8987 15.1584 24.8987 16.9553 25.422 17.8537C25.8582 18.5973 26.6083 19.2478 27.2713 19.4647C28.1087 19.7435 29.8183 19.6661 30.6383 19.3098C31.3535 19.0155 32.6271 17.9312 32.6271 17.6369C32.6271 17.2651 32.2084 17.3426 31.4757 17.8382C30.0626 18.7986 28.6146 18.7367 27.5678 17.6833C26.9049 17.0018 26.6956 16.5526 26.6956 15.7935C26.6956 15.2204 26.6956 15.2204 29.3473 15.2049C32.4526 15.1739 32.5224 15.1429 32.4003 13.7798C32.2433 11.9675 30.1149 11.069 28.004 11.952ZM29.8881 12.68C30.394 12.8814 30.7081 13.4235 30.7081 14.0431C30.7081 14.4924 30.7081 14.4924 28.9286 14.5543C27.9342 14.6008 27.0619 14.5853 26.9921 14.5233C26.7479 14.3375 27.3062 13.3771 27.8993 12.9279C28.5099 12.4786 29.1903 12.4012 29.8881 12.68Z" fill="#CFCFCF"/>
<path d="M38.2446 11.7816C37.634 11.952 36.9885 12.4322 36.343 13.2067C35.9592 13.6714 35.9592 13.6714 35.9592 12.7884C35.9418 12.3082 35.8894 11.8745 35.8196 11.8435C35.5928 11.7196 33.4994 12.5561 33.4994 12.7575C33.4994 12.8659 33.7087 13.0518 33.9878 13.1602C34.4589 13.3616 34.4589 13.3616 34.5112 16.1033C34.5461 18.8296 34.5461 18.8296 34.0227 18.9845C33.7436 19.0775 33.4994 19.2324 33.4994 19.3098C33.4994 19.5422 34.11 19.6351 35.5928 19.5886C36.657 19.5577 36.9013 19.5112 36.9536 19.2943C36.9885 19.1239 36.8489 19.0155 36.4826 18.938C35.9418 18.8296 35.9418 18.8296 35.9418 17.482C35.9418 15.7161 36.1685 14.6782 36.7268 13.9347C37.477 12.9124 38.6109 12.6645 39.239 13.3771C39.5704 13.7643 39.6053 13.9967 39.6053 16.3822C39.6053 18.6282 39.5704 19 39.3262 19.0775C39.0994 19.1549 39.082 19.2169 39.2564 19.4182C39.6053 19.7745 42.1001 19.6661 42.1873 19.2943C42.2222 19.1239 42.1001 19 41.8209 18.938C41.3848 18.8296 41.3848 18.8296 41.315 15.9484C41.2452 12.68 41.1057 12.1998 40.0415 11.7971C39.3611 11.5492 39.0471 11.5492 38.2446 11.7816Z" fill="#CFCFCF"/>
<path d="M49.0783 11.983C48.6422 12.3702 48.6247 12.3702 48.0665 12.1069C47.3338 11.7661 46.5138 11.9055 45.4147 12.5561C44.3331 13.2067 43.7923 14.0431 43.7923 15.112C43.7923 15.9175 44.1587 16.8469 44.4901 16.8469C44.839 16.8469 44.6471 17.1877 44.054 17.6833C43.3213 18.3029 43.2166 19 43.8446 19.3718C44.2284 19.6041 44.2284 19.6041 43.7574 19.7745C42.9026 20.0688 42.4664 21.401 42.9375 22.3149C43.2689 22.9655 43.9667 23.1978 45.5717 23.1978C48.6771 23.1978 50.945 21.9277 50.945 20.2082C50.945 19.4647 50.2646 18.7677 49.3226 18.5353C48.9213 18.4424 47.735 18.3959 46.6359 18.4269C44.5773 18.4733 44.4727 18.4424 45.0135 17.8073C45.2926 17.513 45.4322 17.4665 46.0253 17.5594C48.4677 17.9002 50.7531 15.2359 49.5493 13.47C49.3574 13.1912 49.2353 12.8969 49.2877 12.8039C49.4447 12.5871 50.0029 12.6335 50.2472 12.8969C50.3693 13.0208 50.5786 13.1292 50.7008 13.1292C50.8403 13.1292 50.945 13.0208 50.945 12.8969C50.945 12.649 51.259 12.6026 51.573 12.7884C51.7126 12.8659 51.7998 13.8263 51.8522 15.6077C51.9394 19.1704 52.2011 19.6351 53.998 19.6351C55.0796 19.6351 55.9519 19.2478 56.5102 18.5353C56.7544 18.21 57.0161 17.9467 57.0859 17.9312C57.1382 17.9312 57.1905 18.2565 57.1731 18.6592C57.1382 19.4028 57.1382 19.4028 58.3594 19.4028C59.3538 19.4028 59.5806 19.3563 59.6329 19.1549C59.6678 18.9845 59.4934 18.8451 59.1619 18.7367C58.6211 18.5663 58.6211 18.5663 58.6211 15.1739C58.6211 13.3151 58.5687 11.7506 58.5164 11.7041C58.342 11.5492 56.1787 12.2618 56.1787 12.4632C56.1787 12.5871 56.3706 12.742 56.6148 12.8194C57.051 12.9588 57.051 12.9898 57.051 14.8331C57.051 16.8314 56.9289 17.2341 56.1089 17.9157C55.8647 18.1171 55.3413 18.3339 54.9401 18.3959C54.3469 18.4888 54.155 18.4579 53.8933 18.2255C53.5967 17.9622 53.5618 17.6679 53.5618 14.8486C53.5618 12.5096 53.5095 11.7506 53.3525 11.6886C53.2304 11.6577 52.707 11.7506 52.1836 11.921C50.9973 12.2773 50.945 12.2773 50.945 11.89C50.945 11.3943 49.6715 11.4563 49.0783 11.983ZM47.578 13.0053C48.0316 13.4545 48.3282 14.2445 48.3282 15.0035C48.3282 15.9949 47.1767 16.5371 46.2696 15.9794C45.3624 15.4218 45.0833 14.0741 45.7113 13.1602C45.9904 12.7575 46.1649 12.6645 46.6359 12.6645C47.0197 12.6645 47.3338 12.7884 47.578 13.0053ZM48.712 19.8984C48.9736 20.0069 49.2528 20.2857 49.3051 20.518C49.4098 20.8433 49.34 20.9982 48.9213 21.2926C47.9444 21.9896 46.0602 22.2065 45.0484 21.7418C43.9842 21.2461 44.2633 20.0843 45.5543 19.6816C46.2521 19.4647 48.0141 19.5731 48.712 19.8984Z" fill="#CFCFCF"/>
<path d="M67.3962 11.9984C66.7856 12.2153 66.2972 12.4786 66.2972 12.6026C66.2972 12.7265 66.3844 12.8194 66.4716 12.8194C66.5763 12.8194 66.8031 12.9588 66.995 13.1292C67.309 13.4081 67.3439 13.6404 67.3439 16.1498C67.3439 18.7057 67.3264 18.8606 67.0124 18.8606C66.5414 18.8606 66.2274 19.2324 66.524 19.4492C66.7507 19.6196 69.1059 19.6816 69.6642 19.5422C70.1352 19.4182 70.0131 19.0929 69.4025 18.8451C68.8268 18.6282 68.8268 18.6282 68.8268 16.7694C68.8268 15.019 68.8617 14.8641 69.3327 14.1206C70.1701 12.7575 71.6006 12.4167 72.1763 13.439C72.4729 13.9502 72.4904 18.7212 72.2112 18.969C72.0891 19.0775 72.0542 19.2633 72.1066 19.3873C72.1938 19.5731 72.4904 19.6351 73.4324 19.6351C74.0954 19.6351 74.7583 19.5886 74.9153 19.5422C75.3863 19.3873 75.2293 19.031 74.6536 18.8916C74.0954 18.7677 74.0954 18.7677 74.1303 16.3822C74.1651 13.4855 73.9732 12.5096 73.2405 11.9675C72.3333 11.2859 70.362 11.5492 69.6467 12.4632C69.4897 12.6645 69.2106 12.9898 69.0361 13.1757C68.7221 13.5165 68.7221 13.501 68.7919 12.711C68.8268 12.2153 68.7919 11.8281 68.6698 11.7506C68.5476 11.6577 68.0592 11.7506 67.3962 11.9984Z" fill="#CFCFCF"/>
<path d="M62.0579 12.0914C61.1681 12.4322 61.0111 12.8504 61.7264 12.9433C62.1102 12.9898 62.1102 13.0053 62.1102 15.9175C62.1102 18.8296 62.1102 18.8296 61.6566 18.9226C61.36 19 61.2379 19.1084 61.2728 19.2943C61.3252 19.5267 61.552 19.5577 62.9825 19.5577C64.3781 19.5577 64.6398 19.5112 64.6922 19.3098C64.7271 19.1394 64.5875 19.0155 64.3084 18.9535C63.8548 18.8606 63.8548 18.8606 63.8548 15.2979C63.8548 11.7351 63.8548 11.7351 63.3837 11.7506C63.1046 11.7661 62.5115 11.9055 62.0579 12.0914Z" fill="#CFCFCF"/>
<path d="M0.00374143 15.4992C0.00374143 16.0414 0.0037415 16.0414 1.53896 16.2737C6.982 17.1102 7.50537 17.1257 7.50537 16.3667C7.50537 16.0259 7.31346 15.902 6.58075 15.809C6.26673 15.7781 5.39444 15.6386 4.62684 15.5302C3.85923 15.4063 2.95205 15.2824 2.62059 15.2359C2.28912 15.2049 1.5564 15.1275 1.01559 15.0655C0.0037415 14.9416 0.00374143 14.9416 0.00374143 15.4992Z" fill="#CFCFCF"/>
<path d="M0.00374143 19.4028C0.00374143 19.6196 0.0560783 19.79 0.143307 19.79C0.213089 19.79 0.77135 19.8675 1.39939 19.9449C2.02744 20.0224 3.12651 20.1308 3.84178 20.1773C4.55705 20.2082 6.10971 20.3631 7.29602 20.5026C8.46488 20.642 9.54651 20.7039 9.68607 20.6575C10.0524 20.5335 10.0175 19.9759 9.65118 19.8829C9.47672 19.8365 8.39509 19.728 7.24368 19.6351C6.09227 19.5422 4.22559 19.3563 3.09162 19.2324C0.160752 18.9226 0.00374143 18.938 0.00374143 19.4028Z" fill="#CFCFCF"/>
<path d="M0.00373829 22.6247C0.00373829 23.0894 -0.257946 23.0275 3.59754 23.4147C4.9583 23.5541 6.17949 23.6316 6.35395 23.5696C6.65053 23.4612 6.73775 23.1204 6.47607 22.981C6.28417 22.8726 4.22558 22.6247 2.62058 22.5008C1.99254 22.4543 1.15515 22.3769 0.753901 22.3304C0.0386296 22.2375 0.00373829 22.2529 0.00373829 22.6247Z" fill="#CFCFCF"/>
<path d="M7.01689 27.5816C6.87732 27.721 6.96455 27.9688 7.34835 28.511C7.62749 28.9137 7.85428 29.301 7.85428 29.3629C7.85428 29.4404 8.04618 29.6418 8.29042 29.8276C8.91846 30.3078 8.83123 30.5557 7.95895 30.85C6.42374 31.3767 4.83618 33.0031 4.36515 34.5367C4.1558 35.2337 4.19069 36.2406 4.45238 36.9376C4.5745 37.2629 4.52216 37.2939 3.91156 37.2939C3.12651 37.2939 2.69037 37.4953 2.88227 37.7431C2.95205 37.8671 3.40564 37.9135 4.10347 37.8825C5.25488 37.8361 5.67357 37.9755 5.23743 38.2388C5.08042 38.3318 4.26048 38.3627 3.21374 38.3163C1.39939 38.2388 0.666675 38.4092 0.945806 38.812C1.10282 39.0598 7.67982 39.0598 8.60444 38.8274C9.47672 38.6106 10.9073 37.7896 11.7272 37.0306C13.2973 35.59 13.7858 33.4214 12.8786 31.9653C12.5995 31.5625 12.425 31.1598 12.4774 31.0978C12.5297 31.0204 12.8088 30.85 13.088 30.7261C13.3845 30.5867 13.8381 30.3698 14.0998 30.2459C15.2687 29.7037 15.635 28.8518 14.7628 28.7124C12.4948 28.3561 10.977 28.0773 9.54651 27.752C7.59259 27.3337 7.27857 27.3027 7.01689 27.5816ZM10.82 32.2596C12.7739 33.158 11.7621 36.2716 9.18015 37.3094C7.85428 37.8516 6.28417 37.5418 5.7608 36.6588C5.41189 36.1012 5.62124 34.6761 6.16205 33.9325C7.24368 32.4145 9.44183 31.6245 10.82 32.2596Z" fill="#CFCFCF"/>
<path d="M17.5541 27.5816C17.2575 27.7674 17.2749 27.8449 17.8157 28.7588C18.1646 29.3165 18.5833 29.7967 18.8101 29.8741C19.4556 30.091 19.2637 30.4627 18.2693 30.85C15.7223 31.8414 13.8032 34.7845 14.4836 36.6123C14.6057 36.9531 14.693 37.2474 14.693 37.2784C14.6755 37.3249 14.0824 37.3559 13.3845 37.3559C12.3901 37.3714 12.1285 37.4178 12.1285 37.6037C12.1285 37.7896 12.425 37.8361 13.7683 37.8361C14.9198 37.8361 15.4431 37.898 15.4955 38.0374C15.5304 38.1614 15.3036 38.2233 14.7104 38.2233C12.7391 38.2388 10.3664 38.4092 10.2094 38.5486C9.80819 38.8894 10.7503 38.9978 14.3964 38.9978C18.0076 38.9978 18.2868 38.9669 19.2288 38.6261C21.3921 37.8361 22.9448 36.349 23.4681 34.5831C23.7647 33.5453 23.7124 33.0651 23.1715 31.9963C22.7877 31.2373 22.8401 30.788 23.3111 30.788C23.4681 30.788 23.7821 30.6486 24.0264 30.4782C24.2706 30.3078 24.5672 30.1684 24.6893 30.1684C24.794 30.1684 25.0731 29.9825 25.3174 29.7657C25.7361 29.3629 25.7361 29.3629 25.3174 29.0686C25.0906 28.9137 24.794 28.7743 24.6719 28.7743C24.5323 28.7743 23.1192 28.4955 21.4968 28.1547C19.8918 27.8139 18.4263 27.5041 18.217 27.4576C18.0251 27.4267 17.7111 27.4731 17.5541 27.5816ZM21.2874 32.1047C22.0376 32.4455 22.3342 32.9257 22.3342 33.8086C22.3342 35.3886 21.0955 36.8292 19.1939 37.4643C18.0425 37.8516 17.2749 37.8361 16.5597 37.4023C15.3733 36.6898 15.1814 35.4816 16.0537 34.1339C17.1354 32.4455 19.7871 31.4076 21.2874 32.1047Z" fill="#CFCFCF"/>
<path d="M27.8993 27.628C27.7074 27.8449 27.7597 28.0308 28.2657 28.8982C28.5971 29.4559 29.0158 29.9361 29.1903 29.9825C29.5915 30.0755 29.5915 30.6331 29.1728 30.6331C28.6495 30.6331 27.3585 31.4541 26.399 32.3835C25.0382 33.7157 24.4276 35.4971 24.8289 36.9376C24.9859 37.4488 24.9859 37.4488 23.8345 37.4488C22.7354 37.4488 22.2818 37.6192 22.718 37.8516C22.8401 37.929 23.5553 37.96 24.2881 37.929C25.2127 37.898 25.6488 37.9445 25.6488 38.0529C25.6488 38.3318 25.3348 38.3782 23.1367 38.4247C21.7759 38.4402 21.0257 38.5176 20.9908 38.6261C20.8687 38.9514 21.5142 39.0133 25.2825 38.9978C29.0333 38.9978 29.0333 38.9978 30.08 38.5486C31.4233 37.991 32.4352 37.0771 33.1504 35.7914C33.9181 34.4282 34.0402 33.1116 33.5168 32.1512C33.0807 31.3457 33.0458 30.9429 33.4121 30.9429C33.6913 30.9429 34.0751 30.7571 35.2963 30.0445C36.2383 29.4869 36.1337 29.0996 34.9822 28.8363C33.6913 28.542 28.3006 27.3802 28.2133 27.3802C28.161 27.3802 28.0214 27.4886 27.8993 27.628ZM31.7199 31.8104C33.0981 32.6624 32.819 34.862 31.1268 36.5194C30.3766 37.2474 28.9461 37.9135 28.1087 37.9135C26.6781 37.9135 25.8407 36.8912 26.085 35.4661C26.4339 33.3749 28.4576 31.5625 30.4464 31.5625C30.9697 31.5625 31.4931 31.6555 31.7199 31.8104Z" fill="#CFCFCF"/>
<path d="M88.488 37.2474C88.5578 37.6192 89.936 37.6657 89.936 37.2939C89.936 37.1235 89.7092 37.0461 89.1858 37.0151C88.5229 36.9686 88.4357 36.9996 88.488 37.2474Z" fill="#CFCFCF"/>
<path d="M52.2478 26.9081L52.3265 26.2586L52.5178 26.2686C52.5178 26.4518 52.6397 26.6 52.8835 26.7132C53.1311 26.8231 53.4105 26.8781 53.7218 26.8781C54.0369 26.8781 54.2732 26.8365 54.4307 26.7532C54.5883 26.6666 54.667 26.5584 54.667 26.4285C54.667 26.2087 54.5358 26.0122 54.2732 25.839C54.1644 25.7691 54.05 25.7074 53.93 25.6542C53.6562 25.5276 53.4837 25.4477 53.4124 25.4144C53.3449 25.3777 53.268 25.3411 53.1817 25.3045C53.0954 25.2678 53.0148 25.2295 52.9398 25.1896C52.8685 25.1463 52.7916 25.0947 52.7091 25.0347C52.5216 24.9015 52.4278 24.7533 52.4278 24.5901C52.4278 24.4236 52.4597 24.2787 52.5234 24.1555C52.591 24.0323 52.6735 23.9357 52.771 23.8657C52.8723 23.7958 52.9904 23.7375 53.1254 23.6909C53.3542 23.6176 53.6093 23.581 53.8906 23.581C54.1757 23.581 54.4495 23.6443 54.712 23.7708L54.6445 24.3503H54.4532C54.4532 24.0373 54.1569 23.8807 53.5643 23.8807C53.2905 23.8807 53.0842 23.919 52.9454 23.9956C52.8104 24.0722 52.7429 24.1771 52.7429 24.3104C52.7429 24.5235 53.1329 24.7799 53.9131 25.0797C54.427 25.2762 54.7552 25.4943 54.8977 25.7341C54.969 25.854 55.0046 25.9855 55.0046 26.1287C55.0046 26.4751 54.8471 26.7432 54.532 26.933C54.2207 27.1229 53.8437 27.2178 53.4011 27.2178C52.9585 27.2178 52.5741 27.1145 52.2478 26.9081Z" fill="#CFCFCF"/>
<path d="M56.4888 27.2178C56.1588 27.2178 55.8831 27.1079 55.6618 26.8881C55.4405 26.6683 55.3298 26.4118 55.3298 26.1188C55.3298 25.7457 55.4874 25.4244 55.8024 25.1546C56.1212 24.8848 56.4569 24.75 56.8095 24.75C57.1621 24.75 57.4453 24.8615 57.6591 25.0847C57.8766 25.3045 57.9854 25.5592 57.9854 25.849C57.9854 26.212 57.8335 26.5317 57.5297 26.8081C57.2296 27.0812 56.8827 27.2178 56.4888 27.2178ZM55.7237 25.849C55.7237 26.1587 55.8287 26.4168 56.0387 26.6233C56.2525 26.8265 56.4907 26.928 56.7533 26.928C57.0196 26.928 57.2277 26.8398 57.3778 26.6633C57.5278 26.4868 57.6028 26.3053 57.6028 26.1188C57.6028 25.8357 57.5034 25.5892 57.3046 25.3794C57.1096 25.1663 56.8714 25.0597 56.5901 25.0597C56.3088 25.0597 56.0931 25.1446 55.9431 25.3145C55.7968 25.481 55.7237 25.6592 55.7237 25.849Z" fill="#CFCFCF"/>
<path d="M59.4838 27.1478H58.3585V27.008H58.4373C58.5198 27.008 58.5798 26.993 58.6173 26.963C58.6548 26.9297 58.6736 26.8747 58.6736 26.7982V23.8508C58.6736 23.7875 58.6492 23.7425 58.6005 23.7159C58.5517 23.6859 58.4673 23.6709 58.3473 23.6709V23.531C58.4223 23.531 58.5367 23.5127 58.6905 23.4761C58.848 23.4395 58.9624 23.4012 59.0337 23.3612L59.1349 23.3412V26.7882C59.1349 26.8414 59.1368 26.8797 59.1406 26.9031C59.1481 26.9264 59.1706 26.9497 59.2081 26.973C59.2456 26.9963 59.3037 27.008 59.3825 27.008H59.4838V27.1478Z" fill="#CFCFCF"/>
<path d="M62.7263 27.1478H61.9161V26.5584C61.8298 26.7682 61.6967 26.9314 61.5166 27.0479C61.3366 27.1612 61.1172 27.2178 60.8584 27.2178C60.7233 27.2178 60.6089 27.1911 60.5152 27.1379C60.4214 27.0846 60.3539 27.0163 60.3126 26.933C60.2414 26.7898 60.2057 26.6483 60.2057 26.5084V25.3195C60.2057 25.1663 60.097 25.0897 59.8794 25.0897V24.9498C59.9544 24.9498 60.067 24.9315 60.217 24.8948C60.3708 24.8582 60.4833 24.8199 60.5546 24.7799L60.6558 24.7699V26.4185C60.6558 26.5684 60.6952 26.6833 60.774 26.7632C60.8565 26.8398 60.9709 26.8781 61.1172 26.8781C61.3272 26.8781 61.5129 26.7782 61.6742 26.5783C61.8355 26.3785 61.9161 26.2287 61.9161 26.1287V25.3195C61.9161 25.1663 61.8073 25.0897 61.5898 25.0897V24.9498C61.6723 24.9498 61.7886 24.9315 61.9386 24.8948C62.0924 24.8582 62.2049 24.8199 62.2762 24.7799L62.3775 24.7699V26.8081C62.3775 26.8548 62.3812 26.8897 62.3887 26.913C62.4075 26.9763 62.4862 27.008 62.625 27.008H62.7263V27.1478Z" fill="#CFCFCF"/>
<path d="M64.7535 26.8381L64.7985 26.958C64.5172 27.1312 64.2096 27.2178 63.8758 27.2178C63.7558 27.2178 63.6526 27.1795 63.5663 27.1029C63.4801 27.0263 63.4369 26.9247 63.4369 26.7982V25.0297H63.1106V24.8199H63.2344C63.3582 24.8199 63.4726 24.7533 63.5776 24.6201C63.6864 24.4869 63.7408 24.3636 63.7408 24.2504H63.887V24.8199H64.6522V25.0297H64.1008C63.9583 25.0297 63.887 25.0897 63.887 25.2096V26.6383C63.887 26.8581 63.9771 26.968 64.1571 26.968C64.3596 26.968 64.5584 26.9247 64.7535 26.8381Z" fill="#CFCFCF"/>
<path d="M65.5855 23.6709C65.6718 23.6709 65.7374 23.6959 65.7825 23.7458C65.8312 23.7958 65.8556 23.8607 65.8556 23.9407C65.8556 24.0173 65.82 24.0822 65.7487 24.1355C65.6774 24.1855 65.5987 24.2104 65.5124 24.2104C65.4299 24.2104 65.3642 24.1855 65.3155 24.1355C65.2705 24.0855 65.248 24.0239 65.248 23.9507C65.248 23.8741 65.2836 23.8091 65.3549 23.7558C65.4261 23.6992 65.503 23.6709 65.5855 23.6709ZM66.2044 27.1478H65.0679V27.008H65.1579C65.2592 27.008 65.323 26.993 65.3492 26.963C65.3792 26.933 65.3942 26.8847 65.3942 26.8181V25.3195C65.3942 25.2562 65.3699 25.2112 65.3211 25.1846C65.2761 25.1546 65.1917 25.1396 65.0679 25.1396V24.9997C65.1429 24.9997 65.2555 24.9764 65.4055 24.9298C65.5593 24.8798 65.6756 24.8332 65.7543 24.7899L65.8556 24.7699V26.7882C65.8556 26.8414 65.8575 26.8797 65.8612 26.9031C65.8687 26.9264 65.8912 26.9497 65.9287 26.973C65.9662 26.9963 66.0244 27.008 66.1031 27.008H66.2044V27.1478Z" fill="#CFCFCF"/>
<path d="M67.7248 27.2178C67.3947 27.2178 67.119 27.1079 66.8977 26.8881C66.6764 26.6683 66.5658 26.4118 66.5658 26.1188C66.5658 25.7457 66.7233 25.4244 67.0384 25.1546C67.3572 24.8848 67.6929 24.75 68.0455 24.75C68.398 24.75 68.6812 24.8615 68.895 25.0847C69.1126 25.3045 69.2214 25.5592 69.2214 25.849C69.2214 26.212 69.0694 26.5317 68.7656 26.8081C68.4656 27.0812 68.1186 27.2178 67.7248 27.2178ZM66.9596 25.849C66.9596 26.1587 67.0646 26.4168 67.2747 26.6233C67.4885 26.8265 67.7267 26.928 67.9892 26.928C68.2555 26.928 68.4637 26.8398 68.6137 26.6633C68.7638 26.4868 68.8388 26.3053 68.8388 26.1188C68.8388 25.8357 68.7394 25.5892 68.5406 25.3794C68.3455 25.1663 68.1074 25.0597 67.8261 25.0597C67.5447 25.0597 67.3291 25.1446 67.179 25.3145C67.0328 25.481 66.9596 25.6592 66.9596 25.849Z" fill="#CFCFCF"/>
<path d="M72.4751 27.1478H71.5074V27.008H71.5299C71.5712 27.008 71.6049 26.9897 71.6312 26.953C71.6612 26.9164 71.6762 26.8714 71.6762 26.8181V25.5493C71.6762 25.3994 71.6349 25.2862 71.5524 25.2096C71.4736 25.1296 71.3611 25.0897 71.2148 25.0897C71.0048 25.0897 70.8191 25.1896 70.6578 25.3894C70.4966 25.5892 70.4159 25.7391 70.4159 25.839V26.7882C70.4159 26.8414 70.4178 26.8797 70.4215 26.9031C70.429 26.9264 70.4515 26.9497 70.489 26.973C70.5266 26.9963 70.5847 27.008 70.6635 27.008H70.7647V27.1478H69.6282V27.008H69.7183C69.8195 27.008 69.8833 26.993 69.9095 26.963C69.9396 26.933 69.9546 26.8847 69.9546 26.8181V25.3195C69.9546 25.2562 69.9302 25.2112 69.8814 25.1846C69.8364 25.1546 69.752 25.1396 69.6282 25.1396V24.9997C69.7033 24.9997 69.8158 24.9764 69.9658 24.9298C70.1196 24.8798 70.2359 24.8332 70.3146 24.7899L70.4159 24.7699V25.4094C70.5022 25.1996 70.6353 25.038 70.8154 24.9248C70.9954 24.8082 71.2148 24.75 71.4736 24.75C71.6087 24.75 71.7231 24.7766 71.8168 24.8299C71.9106 24.8832 71.9781 24.9515 72.0194 25.0347C72.0907 25.1779 72.1263 25.3195 72.1263 25.4593V26.8081C72.1263 26.8548 72.13 26.8897 72.1375 26.913C72.1563 26.9763 72.2351 27.008 72.3738 27.008H72.4751V27.1478Z" fill="#CFCFCF"/>
<path d="M72.9249 27.008L72.9811 26.4684L73.1386 26.4784C73.1386 26.5917 73.2212 26.6999 73.3862 26.8031C73.5512 26.9064 73.7294 26.958 73.9207 26.958C74.3145 26.958 74.5114 26.8514 74.5114 26.6383C74.5114 26.5317 74.4608 26.4368 74.3595 26.3535C74.2583 26.2703 74.1364 26.202 73.9938 26.1487C73.8513 26.0921 73.7088 26.0355 73.5662 25.9789C73.4237 25.9189 73.3018 25.8423 73.2005 25.7491C73.0993 25.6525 73.0486 25.5426 73.0486 25.4194C73.0486 24.9864 73.4087 24.7699 74.1289 24.7699C74.2902 24.7699 74.4664 24.8099 74.6577 24.8898L74.624 25.3894H74.4889C74.4889 25.2961 74.427 25.2062 74.3033 25.1196C74.1832 25.033 74.052 24.9897 73.9094 24.9897C73.7669 24.9897 73.645 25.0147 73.5437 25.0647C73.4462 25.1146 73.3975 25.1896 73.3975 25.2895C73.3975 25.3861 73.4481 25.466 73.5494 25.5293C73.6506 25.5926 73.7725 25.6442 73.9151 25.6841C74.0576 25.7241 74.2001 25.7691 74.3427 25.819C74.4852 25.869 74.6071 25.9506 74.7084 26.0638C74.8096 26.177 74.8603 26.3186 74.8603 26.4884C74.8603 26.6583 74.7984 26.7998 74.6746 26.913C74.4533 27.1162 74.1326 27.2178 73.7125 27.2178C73.3862 27.2178 73.1236 27.1478 72.9249 27.008Z" fill="#CFCFCF"/>
</svg>
